<?xml version="1.0" standalone="no"?>
<!DOCTYPE svg PUBLIC "-//W3C//DTD SVG 20010904//EN"
 "http://www.w3.org/TR/2001/REC-SVG-20010904/DTD/svg10.dtd">
<svg version="1.0" xmlns="http://www.w3.org/2000/svg"
 width="1192.000000pt" height="451.000000pt" viewBox="0 0 1192.000000 451.000000"
 preserveAspectRatio="xMidYMid meet">

<g transform="translate(0.000000,451.000000) scale(0.100000,-0.100000)"
fill="#000000" stroke="none">
<path d="M6102 2960 c-89 -21 -152 -102 -152 -195 0 -164 188 -258 318 -158
129 98 93 302 -61 348 -55 16 -57 16 -105 5z"/>
<path d="M6912 2960 c-174 -41 -208 -281 -52 -369 51 -28 131 -31 183 -6 66
31 117 109 117 180 0 82 -63 166 -143 190 -55 16 -57 16 -105 5z"/>
<path d="M4206 2455 c-103 -28 -177 -74 -266 -164 -148 -149 -207 -306 -198
-526 8 -192 62 -317 193 -450 80 -80 149 -123 250 -155 131 -41 318 -25 438
36 l27 15 0 131 0 131 -46 -43 c-74 -68 -122 -85 -239 -85 -84 0 -107 4 -147
24 -99 48 -182 145 -228 266 -19 49 -24 79 -24 165 0 126 20 190 90 293 85
124 200 184 338 175 87 -6 149 -32 210 -88 l46 -43 0 131 0 131 -27 15 c-16 7
-59 23 -97 35 -80 25 -240 28 -320 6z"/>
<path d="M6060 2461 c0 -10 -198 -1224 -206 -1263 l-6 -28 110 0 109 0 83 503
c46 276 86 505 89 509 3 4 75 -56 159 -133 l154 -140 151 148 c120 117 153
144 155 128 2 -11 35 -243 75 -515 l73 -495 108 -3 108 -3 -7 53 c-4 29 -47
321 -94 648 l-87 595 -85 2 -84 3 -150 -145 c-82 -79 -154 -144 -160 -144 -5
-1 -81 64 -169 144 l-158 145 -84 0 c-46 0 -84 -4 -84 -9z"/>
<path d="M4810 1805 l0 -635 300 0 300 0 0 90 0 90 -190 0 -190 0 0 545 0 545
-110 0 -110 0 0 -635z"/>
<path d="M5510 1805 l0 -635 110 0 110 0 0 635 0 635 -110 0 -110 0 0 -635z"/>
<path d="M7330 1806 l0 -636 238 0 c249 0 309 8 390 49 56 29 112 88 141 150
23 49 26 68 25 156 -1 108 -15 161 -61 228 -27 39 -97 87 -126 87 -23 0 -22 2
17 43 47 50 66 113 66 218 0 159 -61 261 -186 310 -54 21 -78 23 -281 27
l-223 4 0 -636z m409 450 c60 -31 83 -81 83 -178 0 -127 -53 -178 -194 -186
l-78 -5 0 198 0 198 81 -7 c45 -4 93 -13 108 -20z m22 -530 c108 -25 152 -77
152 -182 0 -85 -30 -139 -98 -173 -42 -22 -66 -26 -157 -30 l-108 -3 0 201 0
201 78 0 c42 0 102 -6 133 -14z"/>
<path d="M10240 2424 c-150 -54 -250 -210 -238 -368 11 -130 71 -194 283 -297
215 -104 263 -162 236 -282 -44 -197 -282 -213 -403 -26 -17 27 -34 49 -37 49
-3 0 -33 -28 -67 -61 l-62 -61 21 -35 c29 -51 105 -125 158 -156 72 -42 177
-61 269 -48 147 22 243 91 303 220 26 55 32 81 35 159 7 161 -38 232 -212 329
-160 88 -262 160 -287 199 -42 69 -7 168 75 205 85 38 189 16 258 -55 l35 -36
48 72 48 72 -47 42 c-69 63 -139 87 -266 91 -79 2 -116 -1 -150 -13z"/>
<path d="M11035 2415 c-79 -32 -164 -120 -195 -202 -33 -86 -32 -192 3 -259
37 -72 93 -116 237 -185 167 -81 217 -114 240 -160 45 -87 8 -216 -74 -264
-50 -29 -126 -34 -181 -11 -45 19 -129 98 -145 136 -7 17 -15 30 -19 30 -4 0
-35 -29 -70 -64 l-63 -64 30 -44 c99 -145 251 -212 422 -188 169 24 285 131
325 302 27 115 12 211 -45 283 -40 50 -74 74 -222 158 -202 114 -259 173 -244
251 8 44 59 104 103 122 75 32 176 10 240 -52 l44 -41 49 71 50 71 -37 33
c-79 71 -173 102 -303 102 -67 0 -98 -6 -145 -25z"/>
<path d="M8270 1795 l0 -625 105 0 105 0 0 228 0 229 128 6 c180 8 249 31 323
106 71 73 90 123 96 263 5 90 2 117 -16 178 -19 60 -31 82 -75 125 -91 91
-189 115 -478 115 l-188 0 0 -625z m442 426 c81 -39 119 -136 99 -247 -22
-115 -87 -162 -237 -171 l-94 -6 0 228 0 227 93 -4 c69 -3 104 -9 139 -27z"/>
<path d="M9329 2393 c-84 -220 -459 -1213 -459 -1217 0 -3 250 -6 555 -6 305
0 555 3 555 8 -1 4 -103 284 -228 622 l-228 615 -92 3 -92 3 -11 -28z m185
-537 c47 -131 86 -243 86 -248 0 -5 -14 -1 -31 8 -36 18 -40 16 -80 -53 -30
-51 -30 -51 -52 26 l-12 43 -42 -78 c-63 -119 -65 -121 -94 -100 -24 17 -24
16 -77 -41 -30 -32 -52 -53 -50 -46 23 85 255 740 259 735 4 -4 46 -115 93
-246z"/>
</g>
</svg>
