<?xml version="1.0" standalone="no"?>
<!DOCTYPE svg PUBLIC "-//W3C//DTD SVG 20010904//EN"
 "http://www.w3.org/TR/2001/REC-SVG-20010904/DTD/svg10.dtd">
<svg version="1.0" xmlns="http://www.w3.org/2000/svg"
 width="539.000000pt" height="753.000000pt" viewBox="0 0 539.000000 753.000000"
 preserveAspectRatio="xMidYMid meet">
<metadata>
Created by potrace 1.16, written by Peter Selinger 2001-2019
</metadata>
<g transform="translate(0.000000,753.000000) scale(0.100000,-0.100000)"
fill="#000000" stroke="none">
<path d="M20 7057 l0 -462 208 17 c114 9 275 21 357 28 83 6 160 13 171 15 29
6 32 -3 44 -138 6 -62 18 -179 26 -262 8 -82 17 -175 19 -205 2 -30 10 -120
19 -200 8 -80 18 -189 22 -242 8 -112 19 -102 -121 -113 -44 -3 -132 -11 -195
-17 -63 -6 -131 -12 -150 -13 -109 -6 -377 -28 -388 -31 -9 -3 -12 -555 -12
-2719 l0 -2715 2685 0 2685 0 -1 2923 -1 2922 -23 -177 c-13 -97 -26 -181 -29
-186 -3 -6 -21 -9 -39 -7 -203 24 -332 38 -382 41 -33 2 -157 15 -275 29 -118
13 -227 24 -242 25 -36 0 -36 -13 7 378 71 635 89 761 113 770 15 5 152 -7
377 -33 66 -8 185 -21 265 -30 80 -8 164 -18 188 -21 l42 -6 0 446 0 446
-2685 0 -2685 0 0 -463z m1531 211 c0 -62 0 -147 -1 -190 -1 -42 2 -92 6 -112
5 -31 10 -36 35 -36 24 0 29 -4 29 -26 0 -24 -2 -25 -47 -22 -71 4 -73 12 -73
276 l0 222 25 0 25 0 1 -112z m1983 53 c20 -8 26 -17 26 -40 0 -29 0 -29 -30
-14 -44 21 -135 20 -160 -2 -24 -22 -26 -72 -3 -97 9 -10 48 -27 86 -39 95
-28 127 -60 127 -127 0 -92 -73 -142 -185 -128 -87 11 -115 24 -115 53 0 22 3
24 23 19 136 -40 217 -21 217 49 0 41 -20 57 -105 85 -94 31 -125 63 -125 128
0 57 24 96 74 118 33 16 122 12 170 -5z m-983 -157 l104 -167 5 164 5 164 28
3 27 3 0 -226 0 -226 -32 3 c-30 3 -40 15 -137 173 l-106 169 -3 -172 -2 -173
-28 3 -27 3 -3 210 c-1 115 0 215 2 222 3 7 18 13 34 13 26 0 38 -14 133 -166z
m351 -3 c3 -153 5 -172 24 -197 26 -36 76 -49 125 -35 61 18 63 26 69 220 l5
176 28 3 27 3 1 -83 c3 -295 0 -311 -71 -353 -47 -27 -152 -28 -196 -1 -61 36
-69 63 -72 244 -2 90 -1 170 2 178 3 7 16 14 30 14 l25 0 3 -169z m1332 145
c34 -14 66 -50 66 -73 0 -10 -31 -13 -130 -13 -139 0 -146 3 -114 49 33 47
114 64 178 37z m-2884 -115 c56 -39 79 -157 46 -235 -29 -71 -109 -101 -177
-68 l-39 19 0 -78 0 -79 -30 0 -30 0 2 228 3 227 23 3 c13 2 25 -3 28 -13 5
-12 10 -13 20 -5 38 32 109 32 154 1z m516 -6 c34 -22 46 -76 42 -195 -3 -100
-4 -105 -25 -108 -16 -2 -23 2 -23 12 0 20 -9 20 -34 1 -34 -25 -101 -19 -136
13 -50 44 -42 130 15 168 27 17 77 22 118 11 24 -7 27 -5 27 17 0 31 -34 56
-77 56 -29 0 -33 3 -33 26 0 26 1 27 51 21 28 -4 62 -13 75 -22z m188 10 c5
-14 9 -14 35 0 47 24 117 20 146 -9 31 -31 37 -67 33 -196 -3 -100 -4 -105
-25 -108 -23 -3 -23 -2 -23 115 0 144 -9 163 -74 163 -29 0 -52 -7 -70 -21
-23 -18 -26 -27 -25 -82 3 -166 1 -179 -23 -175 -23 3 -23 6 -26 153 -1 82 0
155 2 162 7 18 43 16 50 -2z m2246 -135 l0 -110 -129 0 -130 0 -3 110 -3 110
133 0 132 0 0 -110z m-136 -377 c3 -16 8 -59 10 -98 24 -323 35 -461 41 -495
2 -14 7 -68 10 -120 3 -52 12 -162 19 -245 8 -97 9 -152 3 -156 -14 -10 -279
-42 -522 -64 -88 -8 -178 -16 -200 -19 -22 -2 -81 -8 -132 -11 l-91 -7 -6 54
c-4 29 -24 217 -46 418 -23 201 -49 430 -59 510 -11 80 -16 148 -13 151 4 4
106 16 227 28 269 26 265 25 450 50 182 24 208 27 262 29 38 2 42 0 47 -25z
m-2470 -53 c176 -6 323 -13 327 -15 4 -3 5 -56 3 -117 -2 -62 -6 -212 -9 -333
-3 -121 -7 -231 -9 -245 -2 -14 -7 -110 -11 -214 -6 -147 -5 -190 5 -196 10
-6 7 -14 -11 -33 l-24 -26 -145 9 c-80 5 -199 12 -265 15 -346 18 -544 31
-547 35 -8 11 38 1116 48 1131 5 9 49 10 163 6 86 -4 300 -12 475 -17z m-616
-1616 c32 -22 31 -86 -3 -119 -28 -29 -76 -33 -99 -9 -19 18 -21 82 -3 105 30
38 70 48 105 23z m890 0 c32 -22 31 -86 -3 -119 -31 -32 -89 -35 -105 -6 -42
80 38 174 108 125z m158 8 c61 -40 19 -152 -58 -152 -15 0 -30 5 -34 12 -5 7
-13 -3 -21 -28 l-12 -39 4 35 c14 111 28 171 40 167 6 -3 18 -1 26 4 17 11 40
11 55 1z m225 -13 c27 -27 21 -80 -13 -116 -19 -21 -30 -24 -65 -20 -39 4 -41
3 -48 -27 -15 -69 -13 -5 3 78 14 71 21 90 35 92 11 1 21 5 25 8 12 13 43 5
63 -15z m887 9 c15 -2 15 -17 -3 -102 -17 -81 -36 -106 -80 -106 -34 0 -55 15
-55 39 0 11 5 9 16 -7 18 -26 56 -29 78 -6 27 26 20 40 -19 36 -61 -7 -89 41
-60 102 19 39 50 57 85 50 14 -3 31 -5 38 -6z m712 -8 c24 -24 26 -60 5 -99
-25 -49 -93 -58 -121 -16 -48 74 55 176 116 115z m720 -1260 c-1 -531 -4
-1095 -6 -1255 -1 -159 -3 -665 -3 -1124 l-1 -833 -527 7 c-975 15 -2231 8
-2898 -15 -260 -9 -350 -13 -563 -26 -79 -4 -101 -2 -111 9 -24 29 -31 250
-35 1147 -3 503 -8 1124 -11 1380 -3 256 -7 731 -11 1055 -3 325 -8 598 -10
608 -5 16 97 17 2087 15 l2092 -3 -3 -965z m478 -3627 l3 -23 -653 1 c-359 1
-641 4 -625 6 31 5 27 22 -6 25 -54 6 428 13 833 13 l445 0 3 -22z"/>
<path d="M1240 7163 c-59 -19 -60 -21 -60 -119 l0 -92 36 -17 c52 -25 105 -8
128 39 34 71 10 166 -46 185 -33 12 -35 12 -58 4z"/>
<path d="M1732 7034 c-15 -10 -22 -25 -22 -49 0 -62 63 -81 128 -39 29 19 31
78 3 94 -29 15 -83 12 -109 -6z"/>
<path d="M3513 6326 c-45 -6 -84 -13 -86 -16 -5 -5 16 -217 44 -452 l11 -98
37 0 c20 0 83 7 141 15 125 18 170 43 208 118 76 153 32 351 -93 419 -56 31
-115 34 -262 14z m235 -65 c55 -29 99 -153 87 -244 -10 -74 -38 -133 -75 -155
-33 -21 -199 -47 -211 -34 -9 9 -52 406 -47 424 3 8 37 17 89 23 83 11 117 8
157 -14z"/>
<path d="M1465 6311 c-78 -20 -140 -76 -176 -156 -29 -64 -32 -199 -5 -259 53
-125 173 -188 309 -164 136 24 217 132 217 287 0 84 -12 127 -53 188 -43 64
-113 102 -199 108 -35 2 -76 1 -93 -4z m130 -62 c55 -15 119 -83 133 -142 44
-171 -43 -317 -188 -317 -65 0 -108 18 -147 63 -41 47 -56 104 -51 193 10 156
115 241 253 203z"/>
<path d="M3596 4620 c-40 -12 -75 -47 -100 -100 -20 -45 -21 -49 -18 -1035 1
-545 5 -1003 8 -1020 10 -49 32 -83 71 -110 l38 -25 454 0 c440 0 455 1 487
21 35 21 68 67 77 109 4 14 7 469 8 1010 1 732 -1 996 -10 1028 -16 55 -63
109 -109 122 -45 12 -864 12 -906 0z m954 -1206 l0 -966 -29 -29 -29 -29 -442
0 -442 0 -29 29 -29 29 0 966 0 966 500 0 500 0 0 -966z"/>
<path d="M3790 3370 l0 -130 55 0 55 0 0 130 0 130 -55 0 -55 0 0 -130z"/>
<path d="M4184 3469 c3 -17 6 -76 6 -130 l0 -99 50 0 50 0 0 130 0 130 -56 0
-56 0 6 -31z"/>
<path d="M3662 2818 l3 -133 50 0 50 0 3 133 3 132 -56 0 -56 0 3 -132z"/>
<path d="M4054 2937 c-2 -7 -3 -67 -2 -133 l3 -119 53 -3 52 -3 0 135 0 136
-50 0 c-33 0 -52 -5 -56 -13z"/>
<path d="M4185 2938 c-2 -7 -2 -26 -1 -43 2 -16 4 -72 4 -122 l2 -93 50 0 50
0 0 135 0 135 -50 0 c-32 0 -52 -5 -55 -12z"/>
<path d="M932 3573 c-5 -10 -13 -33 -17 -50 -4 -19 -13 -33 -21 -33 -8 0 -14
-7 -14 -15 0 -8 5 -15 10 -15 6 0 10 -7 10 -15 0 -21 -33 -19 -62 5 -27 20
-40 18 -31 -6 3 -8 0 -14 -6 -14 -6 0 -11 -7 -11 -15 0 -8 -4 -15 -10 -15 -5
0 -10 4 -10 9 0 5 -9 13 -21 16 -16 5 -18 10 -8 21 9 11 7 14 -14 14 -19 0
-28 -7 -36 -31 -6 -18 -11 -41 -11 -53 1 -20 2 -20 14 -3 19 25 23 22 31 -23
8 -49 32 -54 37 -7 2 25 8 33 27 35 21 3 23 1 17 -21 -3 -14 -9 -32 -12 -41
-4 -12 0 -16 15 -16 12 0 21 5 21 10 0 6 12 9 27 8 26 -3 27 -1 26 35 -2 44
38 91 87 102 30 7 31 8 24 53 -8 55 -9 59 -34 72 -15 8 -21 6 -28 -7z"/>
<path d="M699 2893 l-1 -48 -10 43 c-5 23 -14 42 -19 42 -6 0 -8 -8 -5 -17 2
-10 7 -44 11 -75 3 -32 10 -58 13 -58 4 0 7 -19 5 -42 l-2 -43 11 43 c6 23 17
42 24 42 7 0 20 -21 28 -47 14 -45 14 -45 9 -10 -5 38 11 87 29 87 4 0 8 -25
8 -55 0 -30 5 -55 10 -55 6 0 10 28 10 65 l0 65 -50 0 -50 0 0 40 c0 22 5 40
10 40 6 0 10 -11 10 -25 0 -14 5 -25 11 -25 6 0 9 16 7 38 -3 32 -7 37 -30 40
-27 3 -28 2 -29 -45z"/>
<path d="M770 2528 c-55 -38 -74 -72 -74 -131 0 -46 8 -66 73 -179 41 -71 77
-128 80 -128 3 0 39 59 80 131 70 125 73 133 69 183 -3 32 -13 65 -26 83 -45
63 -141 82 -202 41z"/>
<path d="M3662 2124 c-29 -14 -64 -41 -78 -60 -50 -64 -54 -101 -54 -444 0
-343 4 -380 54 -444 14 -19 49 -46 78 -60 l52 -26 340 0 c210 0 356 4 379 11
49 13 115 73 138 124 17 36 19 73 19 395 0 322 -2 359 -19 395 -23 51 -89 111
-138 124 -23 7 -169 11 -379 11 l-340 0 -52 -26z"/>
<path d="M2175 1701 c-77 -33 -83 -166 -9 -200 50 -22 124 -2 124 34 0 10 -10
8 -39 -8 -32 -18 -43 -19 -64 -10 -30 14 -62 58 -52 73 3 5 41 10 86 10 77 0
79 1 79 24 0 53 -74 99 -125 77z"/>
<path d="M992 1447 c-23 -23 -42 -47 -42 -53 0 -6 15 -24 33 -42 33 -32 34
-32 132 -32 l100 0 -85 85 c-47 47 -87 85 -90 85 -3 0 -25 -19 -48 -43z"/>
<path d="M2335 940 l210 -210 62 0 63 0 0 132 0 132 -78 78 -78 78 -195 0
-194 0 210 -210z"/>
<path d="M2077 1036 c-69 -143 -69 -136 -1 -206 l59 -61 -3 123 c-1 68 -3 150
-5 183 l-2 60 -48 -99z"/>
<path d="M3356 994 c-22 -22 -24 -340 -2 -370 14 -18 33 -19 608 -21 465 -2
598 0 618 10 l25 13 3 178 c2 123 -1 183 -9 192 -10 12 -115 14 -620 14 -539
0 -609 -2 -623 -16z"/>
<path d="M4830 6425 c-66 -21 -114 -66 -152 -143 -30 -60 -33 -75 -33 -152 0
-68 5 -96 24 -138 67 -149 265 -199 407 -102 108 75 150 281 83 416 -53 106
-199 159 -329 119z m195 -74 c16 -9 43 -36 60 -60 28 -40 30 -49 30 -134 0
-83 -3 -97 -29 -144 -16 -29 -45 -63 -65 -77 -100 -69 -242 -28 -288 83 -24
57 -19 171 10 235 25 55 74 100 124 116 38 12 122 3 158 -19z"/>
<path d="M245 6360 c-93 -10 -171 -18 -172 -19 -2 -1 -3 -15 -3 -32 l0 -31
100 7 c94 7 100 6 101 -11 0 -11 13 -122 27 -249 l27 -230 33 2 c18 0 35 3 37
5 2 1 -9 113 -25 248 -16 135 -27 247 -25 249 2 2 46 8 97 13 51 5 93 10 94
11 1 1 0 14 -3 30 -5 26 -8 27 -62 26 -31 -1 -132 -10 -226 -19z"/>
</g>
</svg>
