<!DOCTYPE svg PUBLIC "-//W3C//DTD SVG 20010904//EN" "http://www.w3.org/TR/2001/REC-SVG-20010904/DTD/svg10.dtd">
<svg version="1.0" xmlns="http://www.w3.org/2000/svg" width="1200px" height="416px" viewBox="0 0 12000 4160" preserveAspectRatio="xMidYMid meet">
<g id="layer101" fill="#131c47" stroke="none">
<path d="M40 2080 l0 -2080 2070 0 2070 0 0 2080 0 2080 -2070 0 -2070 0 0 -2080z"/>
</g>
<g id="layer102" fill="#9e7d26" stroke="none">
<path d="M7862 4153 c14 -2 31 -10 37 -17 8 -9 10 -111 9 -322 l-3 -309 -35 -6 c-25 -5 -15 -7 38 -8 70 -1 72 0 72 23 0 13 4 26 10 28 6 2 6 18 0 43 -13 53 -12 199 1 255 7 31 7 46 0 48 -7 2 -11 51 -11 132 l0 129 38 4 c20 2 -12 4 -73 4 -60 0 -98 -2 -83 -4z"/>
<path d="M7084 4136 c-47 -21 -74 -61 -74 -112 0 -36 5 -46 32 -67 l32 -25 -32 -27 c-40 -33 -50 -82 -28 -130 9 -19 26 -41 37 -48 16 -12 18 -19 9 -41 -15 -40 -12 -113 6 -147 15 -29 98 -78 111 -65 3 3 -5 10 -19 15 -33 13 -38 28 -38 125 0 69 4 88 21 110 23 29 14 33 -37 14 -29 -10 -36 -9 -54 7 -22 20 -27 64 -8 83 8 8 49 12 120 12 126 0 168 13 198 62 32 53 12 169 -35 208 -14 11 -12 6 5 -17 28 -39 33 -114 9 -138 -43 -43 -213 -42 -256 1 -35 36 -32 106 6 145 16 16 36 29 45 29 8 0 18 5 21 10 9 14 -34 12 -71 -4z"/>
<path d="M7236 4141 c5 -5 23 -12 39 -16 l30 -6 -25 15 c-28 17 -60 22 -44 7z"/>
<path d="M5056 3940 c-151 -48 -171 -348 -29 -442 16 -10 39 -18 53 -17 23 0 23 1 5 8 -41 17 -57 48 -66 128 -10 81 -3 210 13 253 35 94 131 92 167 -3 15 -38 14 -275 0 -316 -7 -18 -26 -41 -43 -52 -31 -19 -31 -19 -6 -19 40 0 95 44 121 97 20 39 24 64 24 133 0 74 -4 91 -28 135 -15 28 -43 61 -62 74 -38 26 -104 35 -149 21z"/>
<path d="M5925 3940 c-88 -18 -95 -24 -95 -82 0 -29 3 -63 6 -76 6 -20 9 -16 24 28 18 54 60 105 94 116 11 4 43 10 71 14 l50 8 -55 0 c-30 0 -73 -4 -95 -8z"/>
<path d="M7465 3926 c-46 -46 -46 -148 1 -197 27 -28 100 -59 138 -59 14 0 7 7 -22 20 -50 23 -62 48 -62 133 0 77 18 107 63 108 27 0 29 2 12 9 -11 5 -39 9 -63 9 -33 1 -49 -5 -67 -23z"/>
<path d="M8045 3940 c-4 -6 7 -10 27 -10 77 0 113 -70 112 -220 0 -52 -6 -112 -13 -132 -14 -43 -62 -88 -94 -89 -21 0 -21 -1 2 -10 34 -13 93 6 128 41 51 52 72 155 53 255 -15 79 -42 122 -95 152 -41 23 -109 31 -120 13z"/>
<path d="M8521 3943 c71 -8 98 -69 98 -223 1 -133 -10 -178 -49 -212 -34 -31 -18 -38 30 -13 53 27 93 95 105 178 9 57 -17 160 -51 204 -31 41 -93 74 -136 71 l-33 -1 36 -4z"/>
<path d="M9205 3936 c-40 -18 -70 -53 -83 -96 -44 -139 -12 -277 77 -337 44 -30 70 -30 36 0 -26 22 -44 76 -45 130 l0 27 91 0 92 0 -6 -56 c-7 -65 -27 -101 -62 -110 -38 -9 -31 -27 8 -19 75 17 116 56 137 134 19 70 17 71 -130 71 l-130 0 0 75 c0 125 33 176 113 175 45 -1 74 -20 108 -70 16 -24 29 -38 29 -33 0 17 -44 75 -72 96 -34 26 -122 33 -163 13z"/>
<path d="M5378 3933 l32 -4 0 -214 0 -214 -32 -4 -33 -4 31 -1 32 -2 3 -86 c4 -82 5 -87 37 -115 27 -24 41 -29 83 -29 27 0 63 7 79 15 49 25 52 100 4 100 -14 0 -20 -8 -22 -35 -4 -42 -27 -70 -57 -70 -38 0 -45 19 -45 121 l0 98 38 4 37 4 -37 1 -38 2 0 214 0 215 33 4 c17 2 -15 4 -73 4 -58 0 -90 -2 -72 -4z"/>
<path d="M6108 3911 c74 -68 69 -165 -10 -224 -18 -14 -62 -39 -98 -57 -36 -18 -77 -41 -91 -51 -64 -45 -81 -169 -35 -240 40 -60 93 -82 185 -77 42 3 88 10 104 16 26 11 27 14 27 84 l-1 73 -28 -60 c-31 -69 -65 -96 -125 -102 -108 -11 -177 126 -104 204 13 14 64 45 114 69 56 26 103 57 122 78 77 88 61 240 -30 296 -50 30 -68 25 -30 -9z"/>
<path d="M6305 3931 l30 -6 3 -212 2 -212 -32 -4 c-18 -2 -3 -5 35 -5 l67 -2 0 208 c0 114 4 212 8 218 4 7 18 14 32 17 14 2 -20 4 -75 4 -55 1 -86 -2 -70 -6z"/>
<path d="M6533 3933 l37 -4 0 -214 0 -214 -37 -4 c-21 -2 -3 -4 40 -5 l77 -2 0 35 c0 19 4 35 9 35 6 0 6 11 0 28 -5 15 -8 97 -7 182 l3 154 25 7 c14 4 -22 7 -80 6 -58 0 -88 -2 -67 -4z"/>
<path d="M6795 3933 c16 -3 33 -10 37 -16 11 -17 9 -304 -2 -352 -12 -52 -34 -68 -88 -62 -53 6 -43 -10 14 -23 48 -11 104 2 130 31 17 19 20 42 24 217 l5 197 30 6 c17 4 -17 6 -75 6 -58 0 -92 -2 -75 -4z"/>
<path d="M7704 3932 c-6 -4 -16 -17 -23 -30 -7 -12 -16 -20 -20 -17 -5 2 -3 -12 5 -33 16 -46 19 -192 3 -192 -8 0 -8 -5 1 -15 8 -10 11 -33 8 -67 -4 -40 -11 -57 -32 -75 l-27 -23 26 0 c38 0 84 27 95 56 6 14 10 96 10 182 0 86 3 167 6 179 3 12 18 26 33 32 23 8 20 9 -24 10 -27 0 -55 -3 -61 -7z"/>
<path d="M8402 3902 c-45 -45 -62 -96 -62 -189 0 -111 34 -184 102 -219 15 -8 35 -14 45 -14 14 0 12 3 -7 13 -35 18 -48 51 -56 144 -10 119 3 225 32 268 22 33 23 35 4 35 -11 0 -37 -17 -58 -38z"/>
<path d="M8777 3933 c24 -3 34 -10 38 -26 3 -12 4 -107 3 -212 l-3 -190 -35 -6 c-25 -5 -15 -7 38 -8 l72 -1 0 41 c0 30 4 40 13 36 11 -4 11 4 0 46 -9 34 -12 97 -11 182 l3 130 30 6 c17 4 -17 6 -75 6 -58 0 -90 -2 -73 -4z"/>
<path d="M8005 3919 c-4 -6 -5 -13 -2 -16 7 -7 27 6 27 18 0 12 -17 12 -25 -2z"/>
<path d="M7230 3718 c37 -60 22 -214 -22 -231 -7 -3 -2 -6 10 -6 57 -2 102 58 102 134 0 36 -34 99 -64 118 -39 26 -48 20 -26 -15z"/>
<path d="M1880 3606 c-806 -143 -1352 -830 -1299 -1634 24 -374 181 -715 453 -987 222 -222 477 -360 790 -427 147 -32 436 -31 586 1 626 133 1089 594 1226 1221 27 122 27 478 0 600 -133 609 -580 1064 -1186 1207 -88 21 -136 25 -300 28 -133 3 -219 0 -270 -9z"/>
<path d="M7455 3591 c-14 -45 31 -99 91 -107 37 -5 38 -5 14 8 -16 9 -29 27 -35 53 -5 22 -14 46 -18 53 -12 18 -45 14 -52 -7z"/>
<path d="M9010 3566 c0 -19 -3 -41 -6 -50 -7 -19 -35 -21 -52 -4 -9 9 -12 9 -12 -1 0 -20 65 -42 94 -31 63 23 62 120 -1 120 -20 0 -23 -5 -23 -34z"/>
<path d="M7347 3530 c-6 -16 -20 -31 -32 -33 -18 -3 -17 -5 8 -15 47 -20 89 17 67 59 -15 27 -30 24 -43 -11z"/>
<path d="M6342 3368 c-7 -7 -12 -24 -12 -38 0 -31 17 -50 45 -50 44 0 61 52 27 83 -22 20 -43 22 -60 5z"/>
<path d="M8047 3202 c-22 -24 -23 -90 -2 -98 22 -9 43 13 47 48 2 17 11 36 20 42 22 14 63 -23 79 -71 6 -19 13 -32 16 -30 8 9 -26 77 -51 102 -31 31 -85 34 -109 7z"/>
<path d="M11561 3194 c-25 -31 -26 -53 -7 -80 20 -26 50 -8 54 34 4 41 22 55 56 42 14 -5 25 -13 25 -17 -1 -5 5 -24 14 -43 20 -43 22 -22 3 24 -28 68 -106 89 -145 40z"/>
<path d="M11713 2934 c-41 -118 -123 -369 -123 -377 0 -4 18 -7 39 -7 l39 0 21 63 c11 34 34 109 51 167 17 57 35 107 41 110 6 4 1 29 -14 70 l-23 63 -31 -89z"/>
<path d="M5140 2694 c-58 -174 -108 -318 -112 -320 -5 -3 -8 134 -8 305 l0 310 48 4 c26 2 7 3 -43 4 -49 0 -75 -2 -57 -4 l32 -4 0 -320 0 -319 -30 0 c-16 0 -30 -4 -30 -10 0 -15 156 -13 167 3 5 6 46 126 93 265 46 138 87 252 91 252 4 0 35 -82 68 -182 33 -101 60 -177 60 -169 1 8 -29 105 -65 215 -36 111 -71 219 -78 240 -7 22 -16 41 -22 43 -5 1 -56 -139 -114 -313z"/>
<path d="M5810 2999 c-120 -48 -159 -265 -69 -388 40 -56 79 -74 149 -69 113 8 165 82 165 233 0 79 -4 96 -28 143 -22 42 -37 58 -70 73 -45 20 -107 24 -147 8z m123 -19 c36 -28 51 -108 45 -240 -6 -144 -32 -190 -105 -190 -41 0 -71 25 -83 68 -13 49 -13 273 1 309 26 70 90 94 142 53z"/>
<path d="M6702 2990 c-91 -56 -109 -272 -31 -379 36 -51 75 -71 137 -71 85 0 145 58 158 153 l7 47 -137 0 -136 0 0 61 c0 132 35 189 116 189 34 0 51 -7 78 -31 19 -16 38 -39 41 -50 4 -11 9 -18 12 -15 12 11 -42 86 -73 101 -47 22 -132 19 -172 -5z m182 -269 c12 -18 -14 -125 -35 -148 -28 -29 -79 -31 -103 -4 -23 26 -45 87 -46 129 l0 32 89 0 c50 0 92 -4 95 -9z"/>
<path d="M7310 2992 c-21 -17 -25 -30 -28 -89 -4 -63 -2 -72 22 -100 16 -19 50 -40 82 -52 73 -28 99 -27 44 2 -36 17 -48 30 -58 62 -15 43 -10 120 8 155 13 25 66 27 92 3 10 -9 21 -14 24 -10 13 13 -52 41 -105 45 -45 3 -61 0 -81 -16z"/>
<path d="M8215 2998 c-2 -7 -36 -103 -74 -213 -38 -110 -72 -208 -76 -217 -6 -16 -1 -18 44 -18 44 0 51 3 51 20 0 11 20 83 45 160 25 77 45 147 45 156 0 8 5 12 10 9 14 -8 13 0 -7 62 -16 52 -29 66 -38 41z"/>
<path d="M9164 3000 c-12 -5 -26 -15 -30 -22 -5 -7 -11 -103 -14 -213 l-5 -200 -30 -6 c-21 -5 -9 -7 38 -8 l67 -1 0 193 c0 227 4 240 70 247 33 4 40 7 27 13 -24 9 -96 8 -123 -3z"/>
<path d="M10436 3000 c-41 -13 -66 -38 -92 -95 -26 -56 -32 -159 -13 -228 12 -43 59 -101 100 -123 40 -20 118 -18 156 6 74 45 118 169 94 272 -31 140 -124 204 -245 168z m116 -14 c35 -26 48 -80 48 -203 0 -65 -5 -135 -10 -155 -20 -72 -103 -103 -148 -55 -31 33 -45 123 -39 243 5 98 13 130 45 167 18 20 79 22 104 3z"/>
<path d="M5443 2993 l47 -4 0 -309 c0 -276 -6 -351 -23 -308 -4 9 -6 8 -6 -3 -2 -30 22 -39 101 -39 45 0 78 4 78 10 0 6 -16 10 -35 10 l-35 0 0 319 0 320 38 4 c20 2 -19 4 -88 4 -69 -1 -104 -2 -77 -4z"/>
<path d="M6138 2993 l32 -4 -2 -212 -3 -212 -30 -6 c-20 -4 -6 -7 43 -8 l72 -1 0 40 c0 22 4 40 10 40 6 0 6 9 0 26 -6 14 -10 94 -10 179 l0 154 33 4 c17 2 -15 4 -73 4 -58 0 -90 -2 -72 -4z"/>
<path d="M6403 2993 l27 -4 0 -193 c0 -180 -1 -194 -20 -214 -25 -26 -66 -28 -100 -6 l-25 17 22 -23 c17 -18 36 -25 81 -28 51 -4 62 -1 88 21 l29 25 3 201 3 200 32 4 c18 2 -13 4 -68 4 -55 0 -88 -2 -72 -4z"/>
<path d="M7089 2983 c-10 -12 -15 -67 -19 -217 l-5 -201 -30 -6 -30 -7 33 -1 32 -1 0 -65 0 -65 40 0 40 0 0 64 0 65 43 4 42 4 -43 1 -42 2 2 206 c3 184 5 208 20 218 13 8 23 8 38 -2 27 -17 39 -15 16 3 -28 21 -120 20 -137 -2z"/>
<path d="M7529 2978 c-7 -13 -16 -26 -21 -29 -5 -3 -4 -17 1 -33 6 -14 11 -91 10 -171 0 -129 -2 -146 -20 -169 -16 -20 -30 -26 -59 -26 -46 0 -70 21 -70 60 0 36 -31 75 -53 67 -38 -15 -12 -98 38 -122 43 -20 147 -20 186 1 50 25 59 63 59 247 0 171 2 179 45 190 11 2 -8 5 -42 6 -55 1 -64 -2 -74 -21z"/>
<path d="M7713 2993 l37 -4 -2 -212 -3 -212 -35 -6 c-24 -5 -12 -7 43 -8 l77 -1 1 48 c1 26 0 124 -1 219 l-2 172 34 4 c18 2 -16 4 -77 4 -60 0 -93 -2 -72 -4z"/>
<path d="M8588 2993 c33 -4 46 -22 57 -77 2 -11 4 -21 5 -21 1 0 3 -9 4 -21 4 -34 28 -118 37 -129 5 -5 9 -18 10 -30 0 -25 58 -196 58 -174 1 9 -8 41 -18 72 -11 32 -17 57 -13 57 3 0 1 5 -6 12 -7 7 -12 25 -12 40 0 28 0 28 70 28 55 0 70 -3 70 -15 0 -8 -11 -58 -25 -111 -14 -53 -25 -104 -25 -115 0 -10 -7 -22 -16 -27 -15 -8 -14 -15 2 -73 18 -67 29 -87 41 -76 3 4 34 103 68 220 34 116 77 262 95 324 l34 112 40 4 c23 2 -17 4 -89 4 -71 0 -111 -2 -87 -4 23 -2 42 -5 42 -6 0 -14 -62 -213 -68 -219 -5 -5 -41 -8 -81 -6 l-72 3 -35 105 c-18 58 -34 108 -34 112 0 4 19 9 43 11 23 2 4 4 -43 4 -47 0 -70 -2 -52 -4z"/>
<path d="M9380 2967 c0 -18 -4 -37 -9 -42 -6 -6 -6 -27 0 -55 5 -25 8 -104 7 -175 l-3 -130 -35 -6 c-25 -5 -15 -7 38 -8 l72 -1 0 219 0 220 38 4 c20 2 5 4 -35 5 l-73 2 0 -33z"/>
<path d="M9630 2990 c-12 -8 -16 -47 -20 -217 l-5 -208 -30 -6 -30 -6 30 -4 c29 -4 30 -5 33 -66 l3 -63 34 0 35 0 0 64 0 65 48 4 47 3 -47 2 -48 2 0 193 c0 158 3 197 16 215 18 27 40 28 68 5 21 -18 21 -18 2 5 -15 17 -29 22 -70 22 -28 0 -58 -5 -66 -10z"/>
<path d="M9838 2993 l32 -4 0 -320 0 -319 -30 0 c-16 0 -30 -5 -30 -10 0 -7 25 -10 68 -8 l67 3 3 140 c1 77 7 144 11 148 5 5 5 23 0 40 -5 18 -9 98 -9 179 l0 147 33 4 c17 2 -15 4 -73 4 -58 0 -90 -2 -72 -4z"/>
<path d="M10103 2993 l38 -4 -3 -196 c-3 -194 -3 -195 -28 -215 -19 -15 -34 -19 -64 -15 -28 4 -35 2 -27 -6 6 -6 37 -13 69 -15 51 -4 62 -1 88 21 l29 25 5 199 5 198 30 6 c17 4 -17 6 -75 6 -58 0 -88 -2 -67 -4z"/>
<path d="M10763 2993 l37 -4 -2 -212 -3 -212 -35 -6 c-26 -5 -16 -7 37 -8 l72 -1 3 43 c2 23 8 41 14 40 7 -1 6 15 -3 50 -9 34 -12 96 -11 177 l3 125 35 6 c19 4 -14 6 -75 6 -60 0 -93 -2 -72 -4z"/>
<path d="M11118 2993 l32 -4 -2 -212 -3 -212 -30 -6 c-21 -5 -9 -7 37 -8 l68 -1 2 218 3 217 35 6 c19 4 -12 6 -70 6 -58 0 -90 -2 -72 -4z"/>
<path d="M11399 2983 c-10 -12 -15 -67 -19 -217 l-5 -201 -30 -6 -30 -7 33 -1 32 -1 0 -65 0 -65 40 0 40 0 0 64 0 65 48 4 47 3 -47 2 -48 2 0 203 c0 207 3 227 39 227 8 0 25 -10 38 -22 13 -12 23 -16 23 -10 0 39 -133 60 -161 25z"/>
<path d="M8270 2869 c0 -3 22 -70 48 -149 27 -80 47 -151 45 -157 -3 -7 2 -13 9 -13 11 0 0 42 -39 157 -46 137 -63 179 -63 162z"/>
<path d="M7947 2663 c-4 -3 -7 -23 -7 -44 0 -26 -6 -42 -20 -52 -11 -8 -17 -17 -13 -20 12 -13 72 -7 87 9 19 18 21 85 4 102 -13 13 -41 16 -51 5z"/>
<path d="M11000 2634 c0 -54 -16 -77 -48 -70 -26 6 -26 6 -8 -9 27 -21 79 -19 99 3 20 22 22 83 5 100 -7 7 -20 12 -30 12 -14 0 -18 -8 -18 -36z"/>
<path d="M11151 2418 c-23 -61 41 -106 75 -53 15 23 15 27 0 50 -21 33 -63 34 -75 3z"/>
</g>
<g id="layer103" fill="#f8f6f5" stroke="none">
<path d="M1412 2618 c-5 -18 -44 -157 -87 -308 -149 -529 -205 -723 -210 -728 -3 -3 -5 220 -5 496 l0 501 63 3 c56 3 62 5 65 26 3 22 3 22 -132 22 l-136 0 0 -25 c0 -23 4 -25 45 -25 l45 0 0 -515 0 -515 -45 0 c-41 0 -45 -2 -45 -25 l0 -26 131 3 132 3 12 45 c40 140 197 716 214 780 10 41 22 68 25 60 2 -8 34 -121 70 -250 36 -129 92 -326 123 -437 l58 -203 127 0 128 0 0 24 c0 23 -4 25 -52 28 l-53 3 0 510 0 510 77 3 c66 2 77 0 82 -15 2 -10 34 -129 70 -265 36 -137 95 -357 130 -490 36 -134 70 -262 76 -285 11 -42 11 -43 55 -43 52 0 43 -22 104 251 37 160 137 591 179 769 l18 75 47 3 47 3 0 -145 c0 -134 2 -146 18 -146 14 0 20 13 29 67 24 136 102 234 198 249 126 18 214 -54 223 -186 9 -130 -39 -196 -210 -286 -140 -74 -216 -144 -241 -223 -20 -62 -23 -195 -5 -253 15 -50 79 -123 131 -150 78 -39 218 -34 330 14 l47 20 0 125 c0 122 0 124 -22 121 -17 -2 -24 -13 -33 -58 -18 -91 -66 -164 -127 -196 -35 -18 -111 -18 -148 1 -54 28 -100 111 -100 179 0 103 50 161 210 246 176 94 236 164 261 305 22 130 -9 254 -82 320 -80 72 -234 84 -392 31 -42 -14 -80 -26 -82 -26 -3 0 -5 9 -5 20 0 19 -7 20 -180 20 l-180 0 0 -25 c0 -24 3 -25 55 -25 38 0 55 -4 55 -13 0 -12 -57 -278 -66 -309 -5 -16 -20 -18 -138 -18 l-132 0 -42 158 c-23 86 -42 162 -42 169 0 8 21 13 58 15 50 3 57 6 60 26 l3 22 -296 0 -296 0 3 -22 c3 -20 10 -23 60 -26 l58 -3 2 -474 c2 -261 0 -475 -4 -475 -5 0 -8 3 -9 8 -2 26 -17 84 -85 326 -42 149 -102 363 -133 476 -50 179 -60 205 -79 208 -16 3 -23 -4 -30 -30z m1021 -435 c4 -8 -99 -452 -107 -460 -5 -6 -3 -13 -71 235 -30 111 -55 209 -55 217 0 12 20 15 114 15 63 0 117 -3 119 -7z"/>
</g>


</svg>