<!DOCTYPE svg PUBLIC "-//W3C//DTD SVG 20010904//EN" "http://www.w3.org/TR/2001/REC-SVG-20010904/DTD/svg10.dtd">
<svg version="1.0" xmlns="http://www.w3.org/2000/svg" width="200px" height="200px" viewBox="0 0 2000 2000" preserveAspectRatio="xMidYMid meet">
<g id="layer101" fill="#ff3d00" stroke="none">
 <path d="M800 1739 c-30 -5 -79 -16 -109 -25 l-55 -17 55 -24 c61 -28 290 -93 325 -93 85 0 429 -117 503 -170 l41 -30 0 85 c0 63 -4 92 -17 111 -41 63 -198 135 -353 160 -93 15 -302 17 -390 3z"/>
 <path d="M467 1602 c-33 -34 -37 -43 -37 -90 0 -48 3 -56 43 -95 23 -23 72 -57 110 -75 69 -33 116 -46 472 -132 237 -57 385 -108 456 -156 l49 -33 0 96 c0 120 -12 146 -88 195 -90 58 -190 94 -442 159 -129 33 -261 69 -292 80 -32 10 -63 19 -70 19 -8 0 -46 16 -87 35 -40 19 -74 35 -75 35 -1 0 -19 -17 -39 -38z"/>
 <path d="M430 1257 c0 -120 68 -209 219 -286 114 -58 194 -85 401 -135 200 -49 434 -121 477 -147 l33 -21 0 100 c0 113 -14 144 -85 194 -48 33 -264 101 -505 158 -203 48 -340 91 -426 131 -34 16 -65 29 -69 29 -5 0 -17 7 -27 17 -17 15 -18 14 -18 -40z"/>
 <path d="M805 695 c-151 -25 -272 -73 -337 -135 -33 -32 -38 -43 -38 -80 0 -37 5 -48 38 -77 117 -106 396 -169 633 -143 253 27 459 126 459 220 0 36 -46 91 -105 125 -148 87 -428 126 -650 90z"/>
 </g>

</svg>