<svg height="935pt" preserveAspectRatio="xMidYMid meet" viewBox="0 0 1254 935" width="1254pt" xmlns="http://www.w3.org/2000/svg"><g transform="matrix(.1 0 0 -.1 0 935)"><path d="m8225 6600v-161l-541 1c-435 0-543-2-552-13-8-9-13-234-18-720l-7-707-571-2-571-3-3-137-3-138h576 575v140 140h543c298 0 734 3 970 7l427 6v263c0 144-3 269-6 278-5 14-49 16-389 16-211 0-390 3-399 6-14 6-16 67-16 595 0 324-3 589-7 589-5 0-8-72-8-160z"/><path d="m6360 4044c-112-43-110-37-110-299v-220l-78-106c-155-212-197-268-204-269-5 0-8 196-8 435v435h-140c-118 0-140-2-140-15 0-8-4-15-8-15-5 0-17-18-28-40-10-22-22-40-26-40-5 0-8-5-8-11s-44-82-97-169c-54-88-138-225-188-306l-90-147-3 371-2 372h-84c-45 0-105-7-132-15s-61-15-76-15-30-4-33-10c-3-5-18-10-32-10-25 0-116-20-185-42-37-11-38-12-38-59 0-56-1-55 115-64 44-4 88-9 98-11 16-5 17-36 17-469 0-413 2-464 16-469 22-9 257-7 270 2 15 10 94 136 94 151 0 6 4 11 8 11 5 0 28 35 52 78 25 42 76 127 114 187 38 61 76 125 84 143 9 17 19 32 23 32s9 10 13 23c3 12 17 35 31 51l25 29v-351-352l23-5c12-3 85-4 161-3l140 3 44 55c46 58 47 59 102 130 19 25 37 47 40 50s25 32 50 65 55 71 68 85c12 14 22 28 22 32 0 7 24 38 55 72 6 6 24 29 40 51 17 22 35 46 42 55 7 8 35 44 62 80 28 36 55 70 59 75 24 30 80 125 86 146 4 13 12 41 18 61 8 28 7 47-3 83-15 50-71 125-94 125-7 0-15 5-17 10-4 12-125 23-148 14z"/><path d="m7165 4041c-69-10-185-53-253-93-263-155-358-511-214-798 41-83 161-213 222-241 19-9 46-21 60-27 146-66 476-52 655 27 11 5 44 20 73 32 28 12 52 27 53 33 2 34-3 191-6 194-2 2-18-3-36-12s-38-16-46-16c-7 0-13-3-13-7 0-5-21-16-48-26-26-11-56-23-67-27-11-5-48-15-83-21-76-14-153-1-221 38-48 28-111 90-111 111 0 6-3 12-8 12-10 0-27 42-47 115-19 69-17 259 3 332 35 125 136 226 250 249l32 7v-157-156l55-25c30-14 74-28 99-31 47-7 146 12 146 27 0 5 5 9 12 9 17 0 68 61 68 81 0 10 5 21 10 24 19 12 11 95-15 149-26 55-89 126-112 126-7 0-13 4-13 9s-8 11-17 14c-10 3-43 15-73 27-43 17-82 22-180 25-69 2-147 0-175-4z"/><path d="m3605 4030c-11-4-47-16-80-25-33-10-69-21-80-25s-49-16-85-26c-36-9-69-21-75-24-5-4-27-10-47-14l-38-7v-54-54l93-3 92-3 3-651 2-652-22-5c-13-3-50-12-83-19l-60-14-3-57-3-57h369 370l4 48c3 26 0 52-5 59s-35 15-68 19-62 11-65 15c-3 5-14 9-25 9-18 0-19 9-19 186v187l98-6c140-8 340 20 376 54 6 5 18 9 28 9s18 4 18 9 12 12 26 15c15 4 63 44 108 89 103 104 135 166 168 322 13 61 4 293-11 308-6 6-11 21-11 32 0 37-71 164-119 213-69 70-79 77-199 123-39 15-163 10-222-10-67-23-190-82-190-91 0-4-8-10-17-13-10-2-26-8-35-12-16-6-18 0-18 64v71l-77-1c-43 0-87-4-98-9zm443-266c24-13 55-35 68-50 30-32 64-97 64-123 0-11 5-23 10-26 6-4 10-62 10-140s-4-136-10-140c-5-3-10-16-10-27 0-60-103-201-156-214-13-3-24-9-24-13 0-10-117-31-174-31h-46l2 393 3 392 50 6c79 10 164-1 213-27z"/></g></svg>